<svg width="40" height="40" fill="none" xmlns="http://www.w3.org/2000/svg"><path d="M20 40c11.046 0 20-8.954 20-20S31.046 0 20 0 0 8.954 0 20s8.954 20 20 20z" fill="url(#paint0_linear_189_1836)"/><path d="M13.538 21.462l2.373 6.568s.297.614.614.614c.318 0 5.043-4.915 5.043-4.915l5.254-10.149-13.2 6.187-.084 1.695z" fill="#C8DAEA"/><path d="M16.684 23.146l-.455 4.841s-.19 1.484 1.292 0c1.483-1.483 2.903-2.627 2.903-2.627" fill="#A9C6D8"/><path d="M13.581 21.697L8.7 20.107s-.583-.238-.396-.774c.04-.11.117-.205.35-.367 1.082-.754 20.018-7.56 20.018-7.56s.535-.18.85-.06a.46.46 0 01.314.342c.034.141.049.286.043.431-.002.126-.017.242-.029.424-.115 1.86-3.566 15.749-3.566 15.749s-.207.812-.947.84a1.355 1.355 0 01-.987-.382c-1.452-1.249-6.47-4.621-7.579-5.363a.211.211 0 01-.09-.15c-.016-.078.069-.175.069-.175s8.738-7.766 8.97-8.582c.018-.063-.05-.094-.141-.066-.58.213-10.641 6.566-11.751 7.268a.535.535 0 01-.247.015z" fill="#fff"/><defs><linearGradient id="paint0_linear_189_1836" x1="20" y1="40" x2="20" y2="0" gradientUnits="userSpaceOnUse"><stop stop-color="#1D93D2"/><stop offset="1" stop-color="#38B0E3"/></linearGradient></defs></svg>