<svg width="40" height="40" fill="none" xmlns="http://www.w3.org/2000/svg"><path d="M40 20c0 11.046-8.954 20-20 20S0 31.046 0 20 8.954 0 20 0s20 8.954 20 20z" fill="#040606"/><path d="M14.662 28.027l.072.065c.221.159.382.382.594.552a3.865 3.865 0 002.245.867c2.01.124 3.76-1.388 3.988-3.375.01-.097.007-.195.007-.292V7.895c0-.404 0-.404.402-.404l2.728.001c.085 0 .174-.016.252.038.005.005.01.009.016.012.043.045.056.103.069.162.349 1.612 1.197 2.899 2.528 3.87.083.061.153.137.233.202l.174.147c.214.122.366.318.552.473a6.3 6.3 0 002.494 1.275c.082.021.175.02.234.097.005.005.01.01.015.013.055.058.045.13.045.2.002 1.055.002 2.11 0 3.164 0 .242-.032.254-.276.254a10.152 10.152 0 01-2.282-.275 10.937 10.937 0 01-3.588-1.546c-.058-.038-.119-.118-.18-.09-.078.035-.037.136-.037.206-.002 2.97.011 5.94-.006 8.909-.012 2.076-.672 3.933-2.031 5.516-1.444 1.68-3.278 2.656-5.48 2.925-1.696.207-3.306-.1-4.834-.855a4.425 4.425 0 01-.705-.43l-.209-.186c-.526-.435-.893-.998-1.235-1.575a8.165 8.165 0 01-1.035-2.869 8.151 8.151 0 01-.112-1.76c.104-1.902.744-3.599 1.97-5.065 1.029-1.231 2.313-2.09 3.827-2.607a7.698 7.698 0 011.951-.397c.124-.008.246-.038.372-.03.059.004.12-.002.17.039a.07.07 0 00.019.012c.035.06.026.126.026.19v3.212c0 .038 0 .075-.002.113-.005.108-.06.143-.162.115a4.06 4.06 0 00-.895-.138 3.416 3.416 0 00-1.371.204c-1.472.543-2.365 1.596-2.551 3.149-.184 1.53.42 2.753 1.693 3.635.106.074.216.143.315.226z" fill="#fff"/><path d="M11.891 31.758c.057-.015.09.03.129.054a8.478 8.478 0 004.776 1.24c1.883-.097 3.567-.723 5.024-1.927a8.313 8.313 0 002.8-4.38 8.23 8.23 0 00.258-1.695c.016-.33.015-.66.015-.99v-8.682c.075-.02.108.035.148.063a10.89 10.89 0 003.277 1.525c.647.177 1.303.296 1.973.355.28.024.562.021.842.042.123.008.125.004.126-.125.002-.135 0-.27 0-.405v-2.874c.001-.06.004-.119.006-.178.253.029.501.083.755.102.156.012.313.026.47.021.078-.002.11.026.101.103-.003.032 0 .065 0 .098v4.235c-.004.122-.004.124-.131.124-.433-.002-.866-.03-1.295-.087a10.968 10.968 0 01-4.785-1.832c-.043-.03-.088-.057-.155-.1v.194c0 3.025.003 6.05 0 9.074-.002 1.612-.42 3.11-1.28 4.476-1.038 1.65-2.48 2.81-4.312 3.476a8.21 8.21 0 01-3.445.472c-1.994-.147-3.72-.909-5.187-2.26-.04-.037-.073-.08-.11-.119z" fill="#ED185C"/><path d="M24.95 7.53c-.06.003-.119.008-.178.008l-2.923.001c-.226 0-.226 0-.226.219 0 5.951 0 11.903.002 17.855 0 .413-.03.821-.16 1.215-.457 1.393-1.392 2.311-2.82 2.637-1.532.35-2.833-.118-3.868-1.305-.017-.02-.029-.045-.043-.067.296.117.591.235.906.298.999.197 1.94.045 2.806-.49 1-.616 1.591-1.52 1.798-2.673.04-.218.046-.44.046-.662V6.676c0-.277-.04-.242.238-.242h4.222c.14.001.143.001.142.144-.001.319-.005.637.058.952z" fill="#48C2C3"/><path d="M17.59 17.31a8.673 8.673 0 00-2.46.426 8.38 8.38 0 00-3.073 1.809A8.355 8.355 0 009.36 25.14a8.348 8.348 0 00.592 3.756c.402.98.963 1.857 1.694 2.625.014.015.024.034.036.052-.166-.071-.299-.192-.438-.302C9.88 30.19 8.92 28.827 8.39 27.165a8.353 8.353 0 01-.355-1.775 8.35 8.35 0 01-.017-1.313 8.295 8.295 0 01.72-2.893 8.357 8.357 0 011.78-2.554 8.401 8.401 0 015.296-2.396 8.727 8.727 0 011.667.037c.074.01.119.025.117.114-.006.308-.006.616-.008.924z" fill="#48C2C3"/><path d="M14.662 28.027a3.201 3.201 0 01-.897-.63 3.757 3.757 0 01-1.168-2.345 3.843 3.843 0 012.693-4.114 3.859 3.859 0 012.171-.033c.04.01.08.028.126.016.024-.058.012-.118.012-.176v-3.246c0-.06.006-.119.01-.178.417-.028.831.01 1.246.056.065.007.082.037.08.094v4.397c0 .053.014.108-.02.165-.189-.035-.374-.092-.566-.12-1.108-.154-2.107.105-2.984.796a3.702 3.702 0 00-1.404 2.371 3.775 3.775 0 00.633 2.838c.024.035.046.072.068.109zm13.134-16.251a5.392 5.392 0 01-1.118-.903 6.33 6.33 0 01-1.712-3.298v-.033c.389-.022.778-.002 1.167-.01.069-.001.1.026.093.096-.003.026 0 .054 0 .08-.02 1.09.303 2.086.834 3.024.19.335.417.644.665.938.027.032.066.058.07.106z" fill="#ED185C"/><path d="M31.25 13.768a6.327 6.327 0 01-2.93-1.489c-.123-.11-.252-.22-.35-.356.04-.004.07.021.103.04a6.43 6.43 0 002.153.763c.298.049.599.08.902.078.126-.002.129.003.129.123 0 .28-.004.561-.007.841z" fill="#48C2C3"/></svg>