<svg width="40" height="40" fill="none" xmlns="http://www.w3.org/2000/svg"><path d="M33.426 10.387H6.976v19.94h26.45v-19.94z" fill="#fff"/><path d="M19.215 40a22.682 22.682 0 01-3.25-.4C7.668 37.884 1.285 31.044.172 22.676A17.478 17.478 0 010 20.001c0-2.05.265-3.866.846-5.787C3.084 6.806 9.505 1.29 17.164.192a20.955 20.955 0 015.665 0c3.753.538 7.28 2.145 10.219 4.658a26.797 26.797 0 012.1 2.1c2.61 3.052 4.222 6.682 4.71 10.6.19 1.533.19 3.37 0 4.901a19.985 19.985 0 01-4.044 9.784 21.041 21.041 0 01-3.583 3.583 20.013 20.013 0 01-10.496 4.114c-.616.053-2.01.09-2.52.067zm3.875-11.24c1.082-.036 2.923-.115 4.078-.175 2.283-.12 3.32-.447 4.116-1.3.392-.42.657-1.03.805-1.856.075-.415.193-1.296.244-1.83.158-1.628.128-5.068-.068-7.812-.084-1.167-.31-2.04-.7-2.692-.166-.278-.586-.712-.872-.902-.716-.476-1.661-.697-3.328-.776-3.81-.18-4.8-.209-7.368-.209-2.532 0-3.68.033-7.386.21-1.555.074-2.452.267-3.165.682-.37.215-.847.697-1.056 1.068-.303.539-.501 1.207-.608 2.054-.05.388-.097 1.212-.196 3.424-.046 1.006-.024 3.777.036 4.518.05.632.199 1.81.284 2.26.182.963.45 1.535.939 2 .784.746 1.802 1.044 3.958 1.16 1.033.055 3.051.144 3.944.173 1.2.04 5.177.041 6.343.003zm-5.596-8.756v-3.689l.096.05c.052.028 1.477.856 3.164 1.84l3.07 1.789-3.087 1.799a837.05 837.05 0 00-3.164 1.85l-.079.05v-3.689z" fill="red"/></svg>