<svg width="290.092" height="289.959" viewBox="0 0 76.754 76.718" xmlns="http://www.w3.org/2000/svg"><path d="M32.45 76.34C15.96 73.779 2.911 60.636.427 44.085-2.712 23.166 11.774 3.574 32.704.432c23.173-3.479 44.05 14.513 44.05 37.964 0 19.03-13.866 35.141-32.673 37.964-3.232.485-8.442.477-11.632-.02zm8.559-14.809c.764-.227 2.315-.766 3.445-1.197l2.054-.785.286-1.25c.157-.687.256-1.28.22-1.316-.038-.037-.852.127-1.811.363-3.374.833-5.223-.03-5.223-2.436 0-1.55.34-3.088 1.981-8.973 1.795-6.433 1.734-6.137 1.75-8.577.015-2.315-.456-3.584-1.789-4.82-1.298-1.205-2.44-1.617-4.844-1.75-2.494-.138-4.243.213-7.704 1.546l-2.006.773-.287 1.254c-.158.69-.25 1.292-.203 1.339.047.046.714-.103 1.482-.33 1.732-.515 2.905-.526 4.07-.04 1.86.778 1.776 2.921-.419 10.55-2.647 9.203-2.712 11.43-.404 13.873 1.416 1.499 3.262 2.168 6.01 2.18 1.1.005 2.627-.177 3.392-.404zm3.336-36.329c4.963-2.26 4.133-9.142-1.248-10.34-4.914-1.093-8.931 4.004-6.392 8.11 1.49 2.41 4.997 3.434 7.64 2.23z" fill="#fff"/></svg>