<svg width="90" height="92" fill="none" xmlns="http://www.w3.org/2000/svg"><path d="M8.998 9.156C1.572 16.577-.054 18.474.108 19.557l.163 1.3h20.597l.163-9.697C21.193 1.246 20.922 0 19.025 0c-.488 0-4.986 4.117-10.027 9.156z" fill="#fff"/><path d="M24.391 10.022c0 6.555-.217 10.456-.65 11.377-1.193 2.654-2.71 2.98-13.713 2.98H0v32.667c0 24.703.163 32.83.65 33.317.488.487 5.963.65 21.302.65h20.597v-7.476c0-6.393.163-7.747 1.138-9.914 1.464-3.196 4.12-6.176 6.992-7.801l2.277-1.355-.759-2.87c-2.547-9.59 5.366-19.883 15.285-19.883h2.44V21.887c0-12.623-.218-20.153-.543-20.858C68.837.054 67.97 0 46.614 0H24.391v10.022zm32.142 19.882c.705 2.005.271 2.059-22.169 2.059-20.868 0-21.897-.054-21.897-.975 0-.542.162-1.192.379-1.355.163-.216 10.027-.379 21.898-.379 16.748 0 21.572.163 21.79.65zm-9.377 16.957c.542.65.542.975 0 1.625-1.03 1.246-34.039 1.246-34.473 0-.216-.433-.216-1.192 0-1.625.271-.704 2.656-.813 17.02-.813 14.255 0 16.857.109 17.453.813zm-5.149 17.877c0 1.03-.434 1.084-14.743 1.246-14.093.109-14.797.055-14.797-.866 0-.542.162-1.192.379-1.355.217-.216 6.83-.325 14.743-.27 13.984.162 14.418.216 14.418 1.245z" fill="#fff"/><path d="M65.531 45.02c-4.553.703-7.643 3.087-9.648 7.53-2.06 4.496-1.247 9.75 2.005 13.543 2.71 3.196 5.583 4.55 9.865 4.55 11.166 0 17.128-12.893 9.865-21.344-3.035-3.576-7.1-5.038-12.087-4.28z" fill="#fff"/><path d="M52.305 68.206c-2.655 1.625-5.04 4.496-5.962 7.042-1.03 2.926-1.138 14.14-.163 15.115.38.38 2.277.65 4.608.65h3.957v-4.28c0-4.713.758-6.23 2.384-4.659.65.65.868 1.95.868 4.93v4.009h18.971v-4.009c0-2.98.216-4.28.867-4.93 1.626-1.57 2.385-.054 2.385 4.66v4.279h4.228c2.547 0 4.498-.27 4.878-.65.975-.975.867-12.19-.163-15.115-.975-2.654-4.499-6.61-6.83-7.584-1.409-.542-1.68-.488-2.926 1.03-.76.92-2.873 2.437-4.716 3.304-2.71 1.354-3.957 1.68-6.938 1.68s-4.228-.326-6.938-1.68c-1.843-.867-3.902-2.33-4.661-3.25-1.572-1.843-1.735-1.897-3.849-.543z" fill="#fff"/></svg>