<svg width="106" height="94" fill="none" xmlns="http://www.w3.org/2000/svg"><path d="M79.511.809C76.7 1.184 74.2 2.793 72.579 5.28c-1.77 2.713-1.974 6.596-.483 9.545 1.331 2.638 3.917 4.644 6.739 5.212 1.073.225 2.972.215 4.035 0 2.382-.493 4.506-1.898 5.965-3.947 2.243-3.12 2.372-7.464.322-10.756-.654-1.062-2.22-2.617-3.208-3.207C84.007.99 81.68.519 79.511.808zM24.723 3.48c-4.228.525-7.63 3.71-8.413 7.882-.236 1.223-.171 3.164.15 4.354.73 2.8 3.016 5.416 5.677 6.489 1.17.471 1.856.6 3.369.654 1.663.064 2.704-.097 4.056-.622 2.715-1.04 5.022-3.657 5.805-6.585.333-1.234.343-3.7.01-4.934-.911-3.356-3.669-6.145-6.92-6.97-1.138-.28-2.704-.397-3.734-.269z" fill="#fff"/><path d="M58.214 10.823c-.794.161-1.556.601-2.178 1.277-1.202 1.287-1.46 3.035-.709 4.686.194.408 1.631 1.91 6.878 7.164l6.632 6.65v5.147l-4.378 4.376-4.367 4.365H43.996l-3.895-3.893-3.884-3.882V33.28l6.492-6.489c3.573-3.57 6.642-6.703 6.813-6.97.687-1.062.805-2.5.312-3.819-.29-.761-1.267-1.801-2.05-2.166-.687-.322-1.652-.45-2.425-.343-1.33.182-1.266.129-6.942 5.791l-5.258 5.255H16.956l-5.258-5.255c-4.045-4.032-5.365-5.298-5.74-5.459-1.159-.504-2.629-.482-3.734.065-.72.364-1.567 1.255-1.932 2.037-.246.537-.29.762-.29 1.641.011 1.92-.46 1.33 7.2 9.009l6.696 6.713v18.232c0 19.916-.032 18.822.612 20.012.375.687 1.502 1.748 2.2 2.07 1.92.88 4.066.472 5.525-1.05.355-.366.752-.87.88-1.116.548-1.083.548-1.051.548-10.35v-8.665h2.79v8.666c0 9.437-.011 9.308.611 10.445.376.687 1.47 1.706 2.21 2.06 1.277.6 2.844.6 4.132-.011.73-.344 1.824-1.362 2.2-2.049.632-1.158.61-.815.61-12.408V48.51l2.362 2.36 2.36 2.358v18.307c0 17.62.011 18.318.204 18.95.73 2.36 3.058 3.84 5.408 3.454 1.406-.236 2.597-1.03 3.412-2.295.751-1.148.74-1.051.74-10.682v-8.59h2.791v8.665c0 9.288 0 9.266.547 10.339.461.89 1.663 1.962 2.586 2.295 2.21.804 4.582-.022 5.89-2.027.784-1.212.741.01.741-20.259V53.228l2.79-2.788 2.79-2.788v9.62c0 6.66.032 9.791.118 10.188.182.869.59 1.64 1.244 2.338 1.578 1.705 4.314 2.048 6.18.772.602-.418 1.396-1.287 1.675-1.823.547-1.073.547-1.051.547-10.339v-8.665h2.79v8.58c0 5.984.032 8.74.118 9.137.311 1.437 1.395 2.8 2.736 3.432.708.343.794.354 2.039.354 1.277 0 1.298 0 2.103-.408.88-.429 1.835-1.34 2.232-2.112.558-1.094.536-.269.536-19.884V30.6l6.653-6.65c7.651-7.657 7.243-7.153 7.243-9.008 0-.998-.022-1.126-.354-1.791-.451-.912-1.384-1.791-2.243-2.134-.869-.333-2.199-.333-3.09.01-.612.226-.934.537-5.955 5.534l-5.312 5.298H72.013l-5.215-5.18c-5.569-5.555-5.644-5.62-6.964-5.866-.665-.118-.944-.118-1.62.01z" fill="#fff"/><path d="M51.43 23.427c-3.133.493-5.859 2.52-7.318 5.437-.697 1.405-.87 2.21-.87 4.215 0 1.877.098 2.434.634 3.775.848 2.091 2.618 3.968 4.732 5.02 1.652.814 2.135.91 4.4.91 1.823-.01 1.984-.02 2.843-.31 1.234-.408 2.146-.901 3.176-1.716 1.588-1.255 2.865-3.164 3.39-5.073.333-1.233.333-3.904 0-5.126-.933-3.357-3.669-6.07-6.985-6.928-.944-.247-3.058-.354-4.002-.204z" fill="#fff"/></svg>