<svg width="106" height="74" fill="none" xmlns="http://www.w3.org/2000/svg"><path d="M102.878 16.826L56.293.8c-2.894-1.068-2.316-1.068-5.166 0L4.231 16.648c-2.895 1.024-2.85 2.715.044 3.783l11.134 3.784c-4.943 4.763-5.255 9.748-5.3 15.49-1.914.713-3.25 2.582-3.25 4.763 0 2.003 1.157 3.695 2.805 4.54C8.863 54.84 6.636 61.561 0 69.484c3.296 2.538 4.988 3.383 7.527 4.23 9.308-4.007 8.15-14.601 7.437-25.106a4.998 4.998 0 002.093-4.095c0-1.825-.935-3.428-2.405-4.318.179-5.653 1.38-10.683 5.612-13.977.044-.089.134-.178.312-.223l32.02-12.953c1.203-.49 2.54.09 3.03 1.291l.044.09c.49 1.201-.09 2.536-1.292 3.026L27.3 28.266l24.228 8.19c2.895 1.068 2.316 1.068 5.166 0l46.229-15.891c2.85-1.024 2.85-2.715-.045-3.74zM51.439 42.599l-29.305-9.927v7.479c1.515 1.424 2.36 3.427 2.36 5.653a8.088 8.088 0 01-1.87 5.208c.401 1.157 1.07 2.314 2.049 2.67 17.057 9.437 40.661 9.303 59.589-.934 1.425-1.158 2.494-2.627 2.494-4.007v-16.47l-30.15 10.372c-2.851 1.024-2.272 1.024-5.167-.044z" fill="#fff"/></svg>